# AST/ASF file generated using VICON BodyLanguage
# -----------------------------------------------
:version 1.10
:name VICON
:units
  mass 1.0
  length 0.45
  angle deg
:documentation
   .ast/.asf automatically generated from VICON data using
   VICON BodyBuilder and BodyLanguage model FoxedUp or BRILLIANT.MOD
:root
   order TX TY TZ RX RY RZ
   axis XYZ
   position 0 0 0  
   orientation 0 0 0 
:bonedata
  begin
     id 1 
     name lhipjoint
     direction 0.567725 -0.736092 0.368589 
     length 2.42353 
     axis 0 0 0  XYZ
  end
  begin
     id 2 
     name lfemur
     direction 0.34202 -0.939693 0  
     length 7.24894  
     axis 0 0 20  XYZ
    dof rx ry rz
    limits (-160.0 20.0)
           (-70.0 70.0)
           (-60.0 70.0)
  end
  begin
     id 3 
     name ltibia
     direction 0.34202 -0.939693 0   
     length 7.6997   
     axis 0 0 20   XYZ
    dof rx
    limits (-10.0 170.0)
  end
  begin
     id 4 
     name lfoot
     direction 0.100767 -0.276854 0.955614   
     length 2.37556   
     axis -90 7.62852e-016 20   XYZ
    dof rx rz
    limits (-45.0 90.0)
           (-70.0 20.0)
  end
  begin
     id 5 
     name ltoes
     direction 1.53592e-011 -4.21894e-011 1   
     length 1.18363   
     axis -90 7.62852e-016 20   XYZ
    dof rx
    limits (-90.0 20.0)
  end
  begin
     id 6 
     name rhipjoint
     direction -0.556459 -0.742938 0.372017   
     length 2.4012  
     axis 0 0 0  XYZ 
  end
  begin
     id 7 
     name rfemur
     direction -0.34202 -0.939693 0   
     length 7.5119   
     axis 0 0 -20   XYZ
    dof rx ry rz
    limits (-160.0 20.0)
           (-70.0 70.0)
           (-70.0 60.0)
  end
  begin
     id 8 
     name rtibia
     direction -0.34202 -0.939693 0   
     length 7.50155   
     axis 0 0 -20   XYZ
    dof rx
    limits (-10.0 170.0)
 end
 begin
     id 9 
     name rfoot
     direction -0.118427 -0.325376 0.938139   
     length 2.32487  
     axis -90 -7.62852e-016 -20   XYZ
    dof rx rz
    limits (-45.0 90.0)
           (-20.0 70.0)
  end
  begin
     id 10 
     name rtoes
     direction -1.53525e-011 -4.21868e-011 1   
     length 1.15233   
     axis -90 -7.62852e-016 -20   XYZ
    dof rx
    limits (-90.0 20.0)
  end
  begin
     id 11 
     name lowerback
     direction 0.0287568 0.999577 -0.00434502   
     length 2.15243   
     axis 0 0 0   XYZ
    dof rx ry rz
    limits (-20.0 45.0)
           (-30.0 30.0)
           (-30.0 30.0)
  end
  begin
     id 12 
     name upperback
     direction 0.0294009 0.99956 0.00404628   
     length 2.15427   
     axis 0 0 0   XYZ
    dof rx ry rz
    limits (-20.0 45.0)
           (-30.0 30.0)
           (-30.0 30.0)
  end
  begin
     id 13 
     name thorax
     direction 0.0151014 0.999868 0.0059419   
     length 2.14898   
     axis 0 0 0   XYZ
    dof rx ry rz
    limits (-20.0 45.0)
           (-30.0 30.0)
           (-30.0 30.0)
  end
  begin
     id 14 
     name lowerneck
     direction -0.0249197 0.989906 0.139515   
     length 1.6861   
     axis 0 0 0   XYZ
    dof rx ry rz
    limits (-20.0 45.0)
           (-30.0 30.0)
           (-30.0 30.0)
  end
  begin
     id 15 
     name upperneck
     direction 0.0438463 0.988795 -0.142693   
     length 1.71276   
     axis 0 0 0   XYZ
    dof rx ry rz
    limits (-20.0 45.0)
           (-30.0 30.0)
           (-30.0 30.0)
  end
  begin
     id 16
     name head
     direction 0.0148499 0.997845 -0.0639186  
     length 1.7209  
     axis 0 0 0   XYZ
    dof rx ry rz
    limits (-20.0 45.0)
           (-30.0 30.0)
           (-30.0 30.0)
  end
  begin
     id 17 
     name lclavicle
     direction 0.940298 0.323464 -0.105876  
     length 3.9048  
     axis 0 0 0   XYZ
    dof ry rz
    limits (-20.0 10.0)
           (0.0 20.0)
  end
  begin
     id 18 
     name lhumerus
     direction 1 -4.48954e-011 -4.9675e-028   
     length 4.6851   
     axis 180 -30 -90   XYZ
    dof rx ry rz
    limits (-60.0 90.0)
           (-90.0 90.0)
           (-90.0 90.0)
  end
  begin
     id 19
     name lradius
     direction 1 -4.48992e-011 -1.03359e-026   
     length 3.39626   
     axis 180 -30 -90   XYZ
    dof rx
    limits (-10.0 170.0)
  end
  begin
     id 20
     name lwrist
     direction 1 -4.48906e-011 -1.67336e-026   
     length 1.69813   
     axis 9.90442e-015 90 90   XYZ
    dof ry
    limits (-180.0 0.0)
 end
  begin
     id 21 
     name lhand
     direction 1 -4.49006e-011 -3.34673e-026   
     length 0.486078   
     axis 2.1355e-014 90 90   XYZ
    dof rx rz
    limits (-90.0 90.0)
           (-45.0 45.0)
  end
  begin
     id 22 
     name lfingers
     direction 1 -4.48992e-011 -6.69345e-026   
     length 0.391889   
     axis 4.27099e-014 90 90   XYZ
    dof rx
    limits (0.0 90.0)
  end
  begin
     id 23
     name lthumb
     direction 0.707107 -6.34926e-011 0.707107   
     length 0.562676   
     axis -90 45 2.85299e-015   XYZ
    dof rx rz
    limits (-45.0 45.0)
           (-45.0 45.0)
  end
  begin
     id 24 
     name rclavicle
     direction -0.882459 0.414895 -0.221648   
     length 3.44646  
     axis 0 0 0   XYZ 
    dof ry rz
    limits (-10.0 20.0)
           (-20.0 0.0)
  end
  begin
     id 25 
     name rhumerus
     direction -1 -4.48962e-011 -2.37984e-027  
     length 5.55576   
     axis 180 30 90   XYZ
    dof rx ry rz
    limits (-90.0 60.0)
           (-90.0 90.0)
           (-90.0 90.0)
  end
  begin
     id 26 
     name rradius
     direction -1 -4.48982e-011 -6.86791e-027   
     length 3.32774   
     axis 180 30 90   XYZ
    dof rx
    limits (-10.0 170.0)
  end
  begin
     id 27 
     name rwrist
     direction -1 -4.48961e-011 -1.67336e-026   
     length 1.66387   
     axis 9.90442e-015 -90 -90   XYZ
    dof ry
    limits (-180.0 0.0)
  end
  begin
     id 28
     name rhand
     direction -1 -4.4897e-011 -3.34673e-026   
     length 0.507628   
     axis 2.1355e-014 -90 -90   XYZ
    dof rx rz
    limits (-90.0 90.0)
           (-45.0 45.0)
  end
  begin
     id 29
     name rfingers
     direction -1 -4.48854e-011 -6.69345e-026   
     length 0.409263   
     axis 4.27099e-014 -90 -90   XYZ
    dof rx
    limits (0.0 90.0)
  end
  begin
     id 30
     name rthumb
     direction -0.707107 -6.34913e-011 0.707107   
     length 0.587622   
     axis -90 -45 -2.85299e-015   XYZ
    dof rx rz
    limits (-45.0 45.0)
           (-45.0 45.0)
  end
:hierarchy
  begin
    root lhipjoint rhipjoint lowerback
    lhipjoint lfemur
    lfemur ltibia
    ltibia lfoot
    lfoot ltoes
    rhipjoint rfemur
    rfemur rtibia
    rtibia rfoot
    rfoot rtoes
    lowerback upperback
    upperback thorax
    thorax lowerneck lclavicle rclavicle
    lowerneck upperneck
    upperneck head
    lclavicle lhumerus
    lhumerus lradius
    lradius lwrist
    lwrist lhand lthumb
    lhand lfingers
    rclavicle rhumerus
    rhumerus rradius
    rradius rwrist
    rwrist rhand rthumb
    rhand rfingers
  end

#!OML:ASF E:\motion texture\Top Level 1\Subject 1\Session 1\male.ASF
:FULLY-SPECIFIED
:DEGREES
158
root 27.9773 17.4804 4.02442 38.0979 -73.2323 -31.0444
lowerback 3.6354 3.87437 -0.993151
upperback -0.862944 5.08177 -1.15666
thorax -2.90126 2.5368 -0.94296
lowerneck -12.467 -3.76158 -12.2247
upperneck 0.982706 -3.97554 13.8591
head 2.87643 -1.57888 6.03007
rclavicle 1.61016e-014 3.18055e-015
rhumerus 27.3692 37.5174 -71.1165
rradius 70.7359
rwrist 25.9918
rhand -33.5406 -30.5935
rfingers 7.12502
rthumb -6.73606 -60.4664
lclavicle 1.61016e-014 3.18055e-015
lhumerus 18.8072 -16.5828 82.734
lradius 69.0535
lwrist -4.02702
lhand -16.9873 31.8868
lfingers 7.12502
lthumb 9.24758 61.664
rfemur -21.3504 -2.54754 27.5886
rtibia 42.4656
rfoot -15.8264 -8.67478
rtoes -5.74916
lfemur -35.585 -2.25201 -7.02242
ltibia 47.0884
lfoot -7.24066 -6.6572
ltoes -12.2082
159
root 27.842 17.4721 3.9987 37.6597 -72.4722 -30.6893
lowerback 3.74071 3.88438 -0.93489
upperback -0.897063 5.09557 -1.16204
thorax -2.98988 2.54232 -0.99109
lowerneck -12.229 -3.91379 -12.4503
upperneck 0.850355 -4.17286 14.0671
head 2.83657 -1.68027 6.12179
rclavicle -1.82882e-014 2.38542e-014
rhumerus 29.213 36.8398 -70.1735
rradius 70.9528
rwrist 26.6417
rhand -34.0615 -31.0951
rfingers 7.12502
rthumb -7.23896 -60.9513
lclavicle -1.82882e-014 2.38542e-014
lhumerus 20.6369 -16.7147 82.4632
lradius 68.9131
lwrist -3.53554
lhand -17.1827 32.395
lfingers 7.12502
lthumb 9.05903 62.1804
rfemur -20.8289 -2.427 27.9648
rtibia 41.4969
rfoot -16.2623 -8.80665
rtoes -6.16969
lfemur -36.2051 -2.22623 -6.38138
ltibia 47.527
lfoot -7.11868 -6.78152
ltoes -12.9324
160
root 27.7053 17.4636 3.97359 37.2509 -71.708 -30.3563
lowerback 3.83774 3.89617 -0.87905
upperback -0.933784 5.11171 -1.17272
thorax -3.07625 2.54894 -1.04299
lowerneck -11.9974 -4.06637 -12.6756
upperneck 0.722118 -4.37156 14.2782
head 2.80015 -1.78228 6.21461
rclavicle -4.21423e-014 2.8625e-014
rhumerus 30.9731 36.1229 -69.3161
rradius 71.1378
rwrist 27.2982
rhand -34.5672 -31.6145
rfingers 7.12502
rthumb -7.72703 -61.4533
lclavicle -4.21423e-014 2.8625e-014
lhumerus 22.4278 -16.8212 82.2357
lradius 68.7385
lwrist -3.03291
lhand -17.3769 32.9097
lfingers 7.12502
lthumb 8.87166 62.7032
rfemur -20.2683 -2.31908 28.3635
rtibia 40.5476
rfoot -16.6582 -8.96934
rtoes -6.55414
lfemur -36.8274 -2.22236 -5.73155
ltibia 47.8438
lfoot -6.99955 -6.85108
ltoes -13.6495
161
root 27.5672 17.455 3.94936 36.8748 -70.9411 -30.0468
lowerback 3.92209 3.91133 -0.825203
upperback -0.973065 5.1324 -1.18828
thorax -3.15782 2.55774 -1.0983
lowerneck -11.7689 -4.21944 -12.8981
upperneck 0.596079 -4.57216 14.4897
head 2.76602 -1.88532 6.30729
rclavicle 9.93923e-015 3.02153e-014
rhumerus 32.6384 35.3713 -68.5529
rradius 71.2917
rwrist 27.9613
rhand -35.0461 -32.1551
rfingers 7.12502
rthumb -8.1893 -61.9764
lclavicle 9.93923e-015 3.02153e-014
lhumerus 24.1712 -16.9104 82.0549
lradius 68.537
lwrist -2.51399
lhand -17.5652 33.4301
lfingers 7.12502
lthumb 8.68997 63.2312
rfemur -19.6752 -2.22602 28.786
rtibia 39.6227
rfoot -17.0159 -9.16168
rtoes -6.89477
lfemur -37.4475 -2.23678 -5.07471
ltibia 48.0303
lfoot -6.88542 -6.86757
ltoes -14.3627
162
root 27.4276 17.4464 3.92625 36.5275 -70.1757 -29.7574
lowerback 3.99369 3.92982 -0.774431
upperback -1.01486 5.15746 -1.2093
thorax -3.23453 2.56868 -1.157
lowerneck -11.5429 -4.37247 -13.1183
upperneck 0.472666 -4.77393 14.702
head 2.73416 -1.98907 6.39998
rclavicle -8.8658e-014 2.70347e-014
rhumerus 34.2124 34.6013 -67.8764
rradius 71.4181
rwrist 28.6254
rhand -35.498 -32.7091
rfingers 7.12502
rthumb -8.62541 -62.5129
lclavicle -8.8658e-014 2.70347e-014
lhumerus 25.8576 -16.9839 81.9227
lradius 68.316
lwrist -1.9738
lhand -17.7406 33.9535
lfingers 7.12502
lthumb 8.52066 63.7616
rfemur -19.0541 -2.15029 29.2293
rtibia 38.7259
rfoot -17.3362 -9.37929
rtoes -7.18503
lfemur -38.0593 -2.26826 -4.41497
ltibia 48.0814
lfoot -6.77935 -6.83197
ltoes -15.0627
163
root 27.2864 17.4378 3.90448 36.2099 -69.4143 -29.4891
lowerback 4.05167 3.95135 -0.725374
upperback -1.05709 5.18656 -1.23586
thorax -3.30359 2.58156 -1.21971
lowerneck -11.3268 -4.52605 -13.3377
upperneck 0.353409 -4.97683 14.9152
head 2.70621 -2.09321 6.49295
rclavicle -1.74931e-014 -1.27222e-014
rhumerus 35.6985 33.8245 -67.2832
rradius 71.5184
rwrist 29.2857
rhand -35.9234 -33.2776
rfingers 7.12502
rthumb -9.03587 -63.0641
lclavicle -1.74931e-014 -1.27222e-014
lhumerus 27.4809 -17.0446 81.8358
lradius 68.0846
lwrist -1.40673
lhand -17.906 34.4769
lfingers 7.12502
lthumb 8.36105 64.2915
rfemur -18.4101 -2.09281 29.6926
rtibia 37.8611
rfoot -17.623 -9.61754
rtoes -7.42771
lfemur -38.6581 -2.31343 -3.75486
ltibia 47.9944
lfoot -6.68684 -6.74573
ltoes -15.7458
